<?xml version="1.0" encoding="UTF-8"?>
<!DOCTYPE svg PUBLIC "-//W3C//DTD SVG 1.1//EN" "http://www.w3.org/Graphics/SVG/1.1/DTD/svg11.dtd">
<svg xmlns="http://www.w3.org/2000/svg" version="1.1" width="500px" height="500px" style="shape-rendering:geometricPrecision; text-rendering:geometricPrecision; image-rendering:optimizeQuality; fill-rule:evenodd; clip-rule:evenodd" xmlns:xlink="http://www.w3.org/1999/xlink">
<g><path style="opacity:0.952" fill="#fefffe" d="M 202.5,59.5 C 256.353,54.9385 300.853,72.9385 336,113.5C 370.65,159.716 377.984,210.049 358,264.5C 350.673,280.97 341.173,295.97 329.5,309.5C 331.38,312.091 333.38,314.591 335.5,317C 370.77,349.58 405.603,382.747 440,416.5C 440.315,417.908 439.982,419.241 439,420.5C 434.833,424.667 430.667,428.833 426.5,433C 424.369,432.602 422.369,431.602 420.5,430C 384.292,394.957 347.958,360.124 311.5,325.5C 265.703,358.018 216.37,364.518 163.5,345C 111.787,321.605 81.6207,281.771 73,225.5C 67.9465,171.63 85.7798,127.13 126.5,92C 148.941,74.2762 174.274,63.4429 202.5,59.5 Z M 205.5,79.5 C 272.151,77.2217 316.984,107.222 340,169.5C 354.134,224.49 340.301,270.99 298.5,309C 254.195,341.569 207.528,345.236 158.5,320C 113.058,290.28 92.2243,248.113 96,193.5C 103.311,142.673 130.478,107.173 177.5,87C 186.793,83.8455 196.127,81.3455 205.5,79.5 Z"/></g>
</svg>
